# File created by Blade
# Date/Time:  Wed Jan 21 18:02:19 2015
# Frame Rate: 120.000 fps
#------------------------------------------------------
:FULLY-SPECIFIED
:DEGREES
1070
root 12.799516 35.718507 -23.841003 -182.148959 18.701177 -176.517127
Spine -6.638239 5.871639 1.941927
Head 11.844851 2.273919 3.341514
LeftShoulder -10.713985 -20.450394 -0.076836
LeftArm -10.750284 6.052689 -58.915488
LeftForeArm -11.627435 0.000000 2.994755
LeftHand -1.431533 0.000000 5.187926
LeftHandThumb1 -26.253704 0.000000 33.147579
RightShoulder -12.234277 -22.930181 12.360483
RightArm -6.196401 -8.639873 78.701460
RightForeArm -13.822596 -0.000000 10.739233
RightHand -0.218867 -0.000000 6.140879
RightHandThumb1 -24.326973 -0.000000 -32.862282
LeftUpLeg 9.515378 30.779181 -1.661577
LeftLeg -5.268728 -0.000000 0.000000
LeftFoot -22.635361 35.614727 -13.269340
LeftToeBase 21.230613 -0.000000 -0.000000
RightUpLeg 5.768586 -17.023780 4.630285
RightLeg 5.387242 -0.000000 -0.000000
RightFoot -22.802024 -23.258801 16.526875
RightToeBase 21.157208 -0.000000 -0.000000
1071
root 12.842507 35.704239 -23.813516 -181.717651 19.505917 -176.619962
Spine -7.079085 6.012733 1.859257
Head 11.740715 2.657096 3.157273
LeftShoulder -10.832533 -20.467409 -0.187234
LeftArm -10.222850 6.482714 -59.042757
LeftForeArm -11.681852 0.000000 3.233110
LeftHand -1.350761 -0.000000 5.281108
LeftHandThumb1 -26.253704 0.000000 33.147579
RightShoulder -12.183889 -22.675606 12.228997
RightArm -6.158082 -8.739810 78.703816
RightForeArm -13.702208 -0.000000 10.889911
RightHand -0.132634 -0.000000 6.011928
RightHandThumb1 -24.326973 -0.000000 -32.862282
LeftUpLeg 9.101961 31.405487 -1.922586
LeftLeg -5.423259 -0.000000 0.000000
LeftFoot -22.637833 35.714685 -13.270124
LeftToeBase 21.279142 -0.000000 -0.000000
RightUpLeg 5.321760 -16.402666 4.661726
RightLeg 5.228078 -0.000000 -0.000000
RightFoot -22.842224 -22.864799 16.546671
RightToeBase 21.260279 -0.000000 -0.000000
1072
root 12.894697 35.692382 -23.789416 -181.557682 20.219695 -176.713502
Spine -7.161237 6.104695 1.761347
Head 11.583691 2.939758 3.074602
LeftShoulder -10.845813 -20.566354 -0.280205
LeftArm -9.692778 6.776811 -59.175656
LeftForeArm -11.742537 -0.000000 3.436388
LeftHand -1.233944 -0.000000 5.330538
LeftHandThumb1 -26.253704 0.000000 33.147579
RightShoulder -12.061112 -22.603137 12.177925
RightArm -5.826889 -8.740851 78.686562
RightForeArm -13.416583 -0.000000 10.967757
RightHand 0.057364 -0.000000 5.994166
RightHandThumb1 -24.326973 -0.000000 -32.862282
LeftUpLeg 9.139202 31.187810 -2.114151
LeftLeg -5.908948 -0.000000 0.000000
LeftFoot -22.495455 36.551952 -13.354305
LeftToeBase 21.128696 -0.000000 -0.000000
RightUpLeg 5.130734 -15.827234 4.650492
RightLeg 5.154379 -0.000000 -0.000000
RightFoot -22.980193 -22.575424 16.562342
RightToeBase 21.582734 -0.000000 -0.000000
1073
root 12.942981 35.682909 -23.765209 -181.326249 20.912871 -176.785621
Spine -7.349470 6.224622 1.694763
Head 11.478456 3.150250 2.937725
LeftShoulder -10.840264 -20.623487 -0.393781
LeftArm -9.144710 6.743462 -59.296016
LeftForeArm -11.361137 -0.000000 3.593154
LeftHand -1.136672 -0.000000 5.381751
LeftHandThumb1 -26.253704 0.000000 33.147579
RightShoulder -12.028152 -22.536080 12.099741
RightArm -5.494272 -8.808664 78.668517
RightForeArm -13.154716 -0.000000 11.034562
RightHand 0.275963 -0.000000 5.849840
RightHandThumb1 -24.326973 -0.000000 -32.862282
LeftUpLeg 8.895106 31.637195 -2.263632
LeftLeg -5.975207 -0.000000 0.000000
LeftFoot -22.471857 36.835314 -13.305213
LeftToeBase 21.064592 -0.000000 -0.000000
RightUpLeg 4.810552 -15.191277 4.672224
RightLeg 5.219893 -0.000000 -0.000000
RightFoot -23.109493 -22.275535 16.670221
RightToeBase 21.724502 -0.000000 -0.000000
1074
root 12.997774 35.674414 -23.753116 -181.295515 21.565101 -176.821982
Spine -7.272768 6.273144 1.692847
Head 11.343896 3.418147 2.815046
LeftShoulder -10.867401 -20.682346 -0.458545
LeftArm -8.587350 6.794981 -59.519089
LeftForeArm -11.080176 -0.000000 3.750392
LeftHand -0.999503 -0.000000 5.438320
LeftHandThumb1 -26.253704 0.000000 33.147579
RightShoulder -11.843269 -22.304270 11.970006
RightArm -5.377542 -8.764991 78.665209
RightForeArm -12.945320 -0.000000 11.240031
RightHand 0.381094 -0.000000 5.738635
RightHandThumb1 -24.326973 -0.000000 -32.862282
LeftUpLeg 8.742960 32.779215 -2.156704
LeftLeg -5.643968 -0.000000 0.000000
LeftFoot -22.547421 36.495992 -13.060310
LeftToeBase 21.180296 -0.000000 -0.000000
RightUpLeg 4.709293 -14.589027 4.669977
RightLeg 5.373876 -0.000000 -0.000000
RightFoot -23.266192 -21.859303 16.770297
RightToeBase 21.887957 -0.000000 -0.000000
1075
root 13.050360 35.669973 -23.743367 -181.262875 22.183723 -176.856628
Spine -7.212164 6.358474 1.689789
Head 11.225474 3.602672 2.674862
LeftShoulder -10.892384 -20.766605 -0.498183
LeftArm -8.071829 7.112552 -59.829380
LeftForeArm -11.110437 0.000000 3.984031
LeftHand -0.998986 -0.000000 5.498530
LeftHandThumb1 -26.253704 0.000000 33.147579
RightShoulder -11.752606 -22.249549 11.906113
RightArm -5.021649 -8.714515 78.617924
RightForeArm -12.765790 -0.000000 11.325557
RightHand 0.512804 0.000000 5.508563
RightHandThumb1 -24.326973 -0.000000 -32.862282
LeftUpLeg 8.765207 33.212796 -2.135182
LeftLeg -5.708869 -0.000000 0.000000
LeftFoot -22.417477 36.759299 -12.853113
LeftToeBase 21.109028 -0.000000 -0.000000
RightUpLeg 4.576624 -13.937223 4.677106
RightLeg 5.619456 -0.000000 -0.000000
RightFoot -23.420390 -21.448230 16.971894
RightToeBase 21.927422 -0.000000 -0.000000
1076
root 13.101565 35.665901 -23.731520 -181.258585 22.705244 -176.873894
Spine -7.104662 6.384482 1.700577
Head 11.113858 3.781182 2.569943
LeftShoulder -10.860060 -20.920190 -0.547120
LeftArm -7.593450 7.256179 -60.145303
LeftForeArm -10.832849 -0.000000 4.113459
LeftHand -0.877045 -0.000000 5.591847
LeftHandThumb1 -26.253704 0.000000 33.147579
RightShoulder -11.649670 -22.139361 11.830292
RightArm -4.723729 -8.719213 78.571951
RightForeArm -12.515839 0.000000 11.434073
RightHand 0.652613 -0.000000 5.330414
RightHandThumb1 -24.326973 -0.000000 -32.862282
LeftUpLeg 8.699507 33.877717 -2.052882
LeftLeg -5.533699 -0.000000 0.000000
LeftFoot -22.459206 36.783820 -12.646793
LeftToeBase 21.254035 -0.000000 -0.000000
RightUpLeg 4.447176 -13.406492 4.693821
RightLeg 5.939202 -0.000000 -0.000000
RightFoot -23.590725 -21.031090 17.181275
RightToeBase 21.917299 -0.000000 -0.000000
1077
root 13.149627 35.664924 -23.725691 -181.311586 23.084267 -176.945761
Spine -6.975910 6.314721 1.642161
Head 11.031097 3.850135 2.467622
LeftShoulder -10.836128 -21.058031 -0.539783
LeftArm -7.126340 7.357125 -60.538602
LeftForeArm -10.517246 -0.000000 4.303739
LeftHand -0.824714 -0.000000 5.530608
LeftHandThumb1 -26.253704 0.000000 33.147579
RightShoulder -11.557487 -21.998867 11.794435
RightArm -4.482530 -8.624746 78.503699
RightForeArm -12.332558 0.000000 11.579541
RightHand 0.749957 -0.000000 5.143279
RightHandThumb1 -24.326973 -0.000000 -32.862282
LeftUpLeg 8.888763 33.461537 -2.124762
LeftLeg -5.861470 -0.000000 0.000000
LeftFoot -22.374626 37.595906 -12.804154
LeftToeBase 21.146667 -0.000000 -0.000000
RightUpLeg 4.363348 -13.090557 4.641063
RightLeg 6.245614 -0.000000 -0.000000
RightFoot -23.750331 -20.635056 17.342631
RightToeBase 22.024577 -0.000000 -0.000000
1078
root 13.209320 35.664799 -23.728661 -181.528891 23.520330 -176.944116
Spine -6.611845 6.370481 1.664910
Head 10.911574 3.876830 2.397836
LeftShoulder -10.790091 -21.146714 -0.536523
LeftArm -6.522608 7.622977 -61.008820
LeftForeArm -10.295512 0.000000 4.385520
LeftHand -0.668577 -0.000000 5.124202
LeftHandThumb1 -26.253704 0.000000 33.147579
RightShoulder -11.435135 -21.756907 11.758896
RightArm -4.334102 -8.563965 78.447983
RightForeArm -12.104311 0.000000 11.723005
RightHand 0.868731 0.000000 4.816362
RightHandThumb1 -24.326973 -0.000000 -32.862282
LeftUpLeg 9.250169 33.692060 -1.896088
LeftLeg -5.958150 -0.000000 0.000000
LeftFoot -22.325648 37.883768 -12.787542
LeftToeBase 21.064606 -0.000000 -0.000000
RightUpLeg 4.501647 -12.796081 4.634090
RightLeg 6.505173 -0.000000 -0.000000
RightFoot -23.855160 -20.353130 17.445020
RightToeBase 22.054014 -0.000000 -0.000000
